<svg xmlns="http://www.w3.org/2000/svg" version="1.1" xmlns:xlink="http://www.w3.org/1999/xlink" width="100%" height="496"><svg version="1.1" id="SvgjsSvg1001" xmlns="http://www.w3.org/2000/svg" xmlns:xlink="http://www.w3.org/1999/xlink" x="0px" y="0px" width="100%" viewBox="0 0 496 496" enable-background="new 0 0 496 496" xml:space="preserve">
<path fill="#000000" opacity="1.000000" stroke="none" d="
M253.999451,110.631027 
	C260.578491,110.630943 266.657654,110.630943 272.953125,110.630943 
	C272.631287,114.674187 270.248657,114.070084 268.472168,114.145432 
	C254.779007,114.726212 251.720673,116.778069 247.336548,129.951492 
	C232.626144,174.153214 218.006439,218.385468 203.538010,262.666779 
	C202.180557,266.821289 200.377640,269.030182 195.869797,268.339783 
	C194.893234,268.190216 193.873657,268.340179 192.874832,268.314758 
	C176.065063,267.886810 180.463989,271.343414 174.658752,255.047073 
	C159.582153,212.724548 144.664337,170.345032 129.838165,127.934067 
	C126.870903,119.446083 122.534561,113.346245 112.413773,114.118134 
	C110.982498,114.227287 109.316818,114.057144 109.194527,111.271500 
	C131.429504,111.271500 153.586624,111.271500 175.857864,111.271500 
	C175.676575,114.364098 173.708282,114.011574 172.177536,114.107178 
	C169.519455,114.273170 166.834213,114.111099 164.190720,114.382523 
	C157.544434,115.064941 154.418610,119.287605 155.943100,125.800301 
	C159.249725,139.926453 164.908630,153.298843 169.520996,167.002716 
	C179.653839,197.108612 191.097183,226.773453 199.859070,257.341248 
	C199.945877,257.644135 200.202713,257.898346 200.437775,258.265137 
	C202.113602,257.621490 202.019989,255.906769 202.425827,254.660629 
	C215.046051,215.910431 227.614990,177.143478 240.154907,138.367203 
	C241.330368,134.732452 242.449799,131.060242 243.269043,127.333702 
	C244.940125,119.732315 241.378036,114.884987 233.618317,114.377235 
	C228.473587,114.040581 223.294495,114.258881 218.133560,114.122902 
	C216.452560,114.078621 214.315140,114.695877 213.330429,110.631111 
	C226.963257,110.631111 240.231415,110.631111 253.999451,110.631027 
z"></path>
<path fill="#000000" opacity="1.000000" stroke="none" d="
M364.601868,220.406036 
	C355.245453,205.385391 341.540771,198.864670 324.654572,198.290634 
	C318.000854,198.064438 311.326080,198.393967 304.677856,198.093704 
	C300.332458,197.897446 298.835083,199.419495 298.881805,203.812408 
	C299.076721,222.127075 298.973572,240.444839 298.992737,258.761475 
	C299.004669,270.125641 298.905121,268.171204 289.673798,268.315674 
	C286.177856,268.370392 282.657990,268.071899 279.188934,268.381531 
	C274.439545,268.805481 272.784332,267.095825 272.870575,262.212311 
	C273.138092,247.064209 272.970367,231.908340 272.959747,216.755478 
	C272.950287,203.276581 268.759125,198.880219 255.280899,198.178268 
	C252.865921,198.052490 252.865921,198.052475 250.666031,196.234543 
	C251.430786,193.990067 253.392242,194.710709 254.880875,194.708633 
	C281.023529,194.672318 307.213654,193.707672 333.297516,194.953522 
	C369.241852,196.670334 394.828766,217.885132 402.279541,256.760376 
	C402.957428,260.297272 404.067017,263.859985 402.842896,268.221436 
	C394.872009,268.221436 386.775452,268.359253 378.687500,268.155762 
	C375.298462,268.070496 375.852173,265.053833 375.702972,262.820648 
	C374.934753,251.324615 373.090149,240.043182 368.838287,229.273788 
	C367.682343,226.345871 366.141602,223.569839 364.601868,220.406036 
z"></path>
<path fill="#000000" opacity="1.000000" stroke="none" d="
M292.999969,368.343201 
	C278.537415,368.343872 264.574860,368.343872 250.073807,368.343872 
	C251.276260,364.084198 253.638016,364.902008 255.397232,364.815857 
	C267.949188,364.200989 272.790527,359.327759 272.911255,346.857025 
	C272.991852,338.530792 273.046753,330.200897 272.880310,321.877258 
	C272.804291,318.076324 274.062561,316.411072 278.061554,316.606689 
	C283.211884,316.858643 288.394684,316.870605 293.543335,316.601196 
	C297.667450,316.385406 299.133453,317.895477 299.065887,322.036865 
	C298.859375,334.690643 299.108276,347.352722 298.835876,360.004150 
	C298.754486,363.783447 299.849243,365.042450 303.575836,364.881805 
	C312.710022,364.488068 321.884460,365.426666 330.996185,364.106720 
	C352.262634,361.026031 364.624573,348.053894 370.684235,328.203064 
	C374.197815,316.693054 374.116882,316.623138 386.490784,316.691742 
	C390.455383,316.713684 394.456879,316.228180 398.236633,317.054504 
	C399.380463,318.314026 398.739777,319.427185 398.359894,320.471008 
	C388.518829,347.513672 369.382660,363.250000 340.881470,367.324707 
	C325.149811,369.573761 309.291809,367.837250 292.999969,368.343201 
z"></path>
<path fill="#000000" opacity="1.000000" stroke="none" d="
M269.627533,300.347504 
	C269.120972,300.779083 268.616516,301.582733 268.107574,301.585571 
	C261.981537,301.619843 255.477325,304.369232 249.925400,299.169067 
	C246.678741,303.857483 242.810638,302.957306 238.734543,300.083984 
	C235.895477,302.416718 232.869690,303.376740 229.586212,301.217377 
	C227.949417,300.140930 226.797806,301.290863 225.456436,301.852814 
	C222.734604,302.993164 219.913040,303.458313 217.390976,301.527985 
	C214.612701,299.401550 216.209244,296.715302 216.766815,294.179016 
	C217.108200,292.626068 218.262451,291.104126 216.845093,288.987091 
	C214.671570,291.375061 213.637878,294.379608 213.646927,297.011047 
	C213.664536,302.138489 210.997482,302.772766 207.006790,302.373444 
	C205.547607,302.227448 204.011017,302.564728 202.603470,301.605652 
	C204.546280,295.258484 207.450699,289.052216 208.080002,282.623230 
	C208.541794,277.905518 210.897461,277.919220 213.741211,277.869690 
	C217.866379,277.797821 218.352264,280.828430 217.765091,284.963501 
	C222.757935,283.434021 228.661697,276.275238 230.794525,287.259583 
	C227.571518,289.315125 225.782196,292.712372 225.722198,297.321899 
	C229.508759,297.384949 230.629959,293.787048 233.731796,292.892944 
	C232.147400,290.589355 230.594437,288.381836 232.857803,286.079895 
	C234.793442,284.111328 237.075790,284.328674 239.250305,285.684540 
	C240.756790,286.623871 242.010773,286.279449 243.428009,285.498749 
	C245.689407,284.252991 247.994446,284.214478 249.745407,286.346161 
	C251.470383,288.446259 250.376434,290.430664 248.964142,292.204437 
	C248.158432,293.216370 247.505280,294.110748 249.365433,295.405823 
	C250.541916,292.419952 251.297668,289.311432 253.527420,286.901093 
	C256.165314,284.049500 259.722351,285.060547 263.128479,284.214417 
	C263.428467,281.210022 263.324402,277.890747 267.815521,277.754913 
	C271.871613,277.632233 273.910126,279.482910 273.007996,283.427948 
	C272.305298,286.500977 271.303223,289.522888 270.204132,292.482086 
	C269.401489,294.642975 269.298096,296.660828 270.119080,299.317780 
	C269.855804,300.048065 269.741669,300.197784 269.627533,300.347504 
z"></path>
<path fill="#000000" opacity="1.000000" stroke="none" d="
M303.009705,288.020447 
	C304.938354,282.629303 312.240723,280.371307 315.807190,284.074554 
	C316.660950,284.961060 317.779510,285.789062 318.863190,285.321198 
	C322.749878,283.643158 326.729797,285.934448 330.625519,284.796143 
	C333.331787,284.005371 334.833862,286.151062 336.574280,287.981934 
	C342.250519,285.243835 348.266052,281.824799 353.874329,287.364624 
	C356.774323,290.229279 355.744476,294.220825 353.661438,297.525299 
	C350.915741,301.881042 344.962311,303.790161 339.537781,302.341522 
	C334.941498,301.114044 333.831146,297.790833 334.010498,293.211823 
	C331.676361,293.594849 329.698334,292.545776 327.888275,290.918915 
	C325.942444,294.548859 325.142365,297.999115 325.773193,301.928497 
	C319.349548,303.122162 313.097778,301.743195 306.868225,302.557404 
	C302.972260,303.066620 301.914185,299.655792 302.705597,295.878174 
	C303.213867,293.452118 305.647400,291.139771 303.231140,288.214539 
	C303.001556,288.003174 303.009705,288.020447 303.009705,288.020447 
M313.777954,290.488068 
	C313.361603,291.745972 312.852356,292.982361 312.555206,294.267822 
	C312.261017,295.540253 311.878601,296.992218 313.668915,297.588196 
	C315.598785,298.230591 316.365387,297.151947 316.810486,295.465637 
	C317.379272,293.310822 318.578522,291.274292 318.208405,288.941833 
	C316.504822,288.639648 315.311157,289.103149 313.777954,290.488068 
z"></path>
<path fill="#000000" opacity="1.000000" stroke="none" d="
M203.101807,288.100006 
	C204.825150,293.592468 203.492737,297.473999 199.166916,300.488373 
	C195.217606,303.240387 188.847427,303.654144 185.531693,301.253418 
	C182.356476,298.954407 182.080490,295.755157 183.252853,292.353577 
	C185.936508,284.567261 196.390335,282.144623 203.101807,288.100006 
z"></path>
<path fill="#000000" opacity="1.000000" stroke="none" d="
M302.997498,287.996704 
	C302.361176,290.235413 300.858765,291.519409 297.784485,291.639130 
	C300.837372,293.755707 302.399780,296.007507 300.672363,298.730072 
	C297.953430,303.015289 293.454315,302.807465 289.123688,302.412048 
	C285.588959,302.089294 282.029724,301.557251 281.926453,296.393188 
	C281.999908,296.000275 282.004883,295.996033 282.004883,295.996033 
	C284.278809,294.953796 285.496338,293.643951 284.812500,290.723419 
	C284.157990,287.928131 286.053253,285.759949 288.635223,285.094849 
	C293.517517,283.837219 298.480927,283.286224 302.757263,287.760864 
	C303.009705,288.020447 303.001556,288.003174 302.997498,287.996704 
z"></path>
<path fill="#000000" opacity="1.000000" stroke="none" d="
M176.163986,286.644165 
	C177.548279,284.412506 178.520569,282.176636 180.568649,280.930634 
	C182.877213,279.526215 185.135696,279.756836 186.502747,282.332123 
	C187.785599,284.748840 186.536667,287.416473 184.437164,287.487793 
	C179.439621,287.657532 178.517609,291.530212 176.545181,294.571838 
	C175.460709,296.244141 174.476212,297.980927 173.411560,299.666473 
	C172.494720,301.117950 171.398209,302.477173 169.451126,302.112427 
	C167.494888,301.745941 167.060028,300.084564 166.700470,298.390503 
	C165.501755,292.742737 164.885193,286.971893 162.818176,281.291260 
	C166.640228,279.202301 170.189346,279.588928 173.991333,281.145416 
	C173.738525,283.664276 172.895401,286.153259 174.847534,288.463104 
	C175.249908,287.913940 175.621933,287.406158 176.163986,286.644165 
z"></path>
<path fill="#000000" opacity="1.000000" stroke="none" d="
M270.136047,299.669922 
	C272.741821,296.715546 273.792938,293.217804 273.629028,289.876068 
	C273.459045,286.409912 274.667053,284.958008 277.441010,284.588806 
	C278.689453,283.309479 277.785736,282.093323 278.053284,281.003204 
	C278.674255,278.473114 280.292358,277.235718 282.796265,278.002136 
	C285.163116,278.726593 285.624603,280.620514 284.642914,282.783813 
	C282.845062,286.745819 283.888306,291.264313 282.071228,295.610474 
	C282.004883,295.996033 281.999908,296.000275 281.998047,296.005127 
	C280.909332,297.757782 281.304474,299.828613 280.986938,301.973602 
	C277.117737,302.188995 273.436279,303.469269 269.788025,300.732544 
	C269.741669,300.197784 269.855804,300.048065 270.136047,299.669922 
z"></path>
</svg><style>@media (prefers-color-scheme: light) { :root { filter: none; } }
@media (prefers-color-scheme: dark) { :root { filter: none; } }
</style></svg>